<?xml version="1.0" encoding="utf-8" standalone="no"?>
<!DOCTYPE svg PUBLIC "-//W3C//DTD SVG 1.1//EN"
  "http://www.w3.org/Graphics/SVG/1.1/DTD/svg11.dtd">
<svg xmlns:xlink="http://www.w3.org/1999/xlink" width="111.1pt" height="70.115875pt" viewBox="0 0 111.1 70.115875" xmlns="http://www.w3.org/2000/svg" version="1.1">
 <metadata>
  <rdf:RDF xmlns:dc="http://purl.org/dc/elements/1.1/" xmlns:cc="http://creativecommons.org/ns#" xmlns:rdf="http://www.w3.org/1999/02/22-rdf-syntax-ns#">
   <cc:Work>
    <dc:type rdf:resource="http://purl.org/dc/dcmitype/StillImage"/>
    <dc:date>2023-11-30T10:21:04.285681</dc:date>
    <dc:format>image/svg+xml</dc:format>
    <dc:creator>
     <cc:Agent>
      <dc:title>Matplotlib v3.5.3, https://matplotlib.org/</dc:title>
     </cc:Agent>
    </dc:creator>
   </cc:Work>
  </rdf:RDF>
 </metadata>
 <defs>
  <style type="text/css">*{stroke-linejoin: round; stroke-linecap: butt}</style>
 </defs>
 <g id="figure_1">
  <g id="patch_1">
   <path d="M 0 70.115875 
L 111.1 70.115875 
L 111.1 0 
L 0 0 
z
" style="fill: #ffffff"/>
  </g>
  <g id="axes_1">
   <g id="patch_2">
    <path d="M 20.2 50.659312 
L 103.9 50.659312 
L 103.9 17.395312 
L 20.2 17.395312 
z
" style="fill: #ffffff"/>
   </g>
   <g id="PathCollection_1">
    <defs>
     <path id="m180bcd7fbd" d="M -0.866025 0.866025 
L 0.866025 -0.866025 
M -0.866025 -0.866025 
L 0.866025 0.866025 
" style="stroke: #ff0000; stroke-width: 1.5"/>
    </defs>
    <g clip-path="url(#padcb8b4e5a)">
     <use xlink:href="#m180bcd7fbd" x="94.847806" y="24.600511" style="fill: #ff0000; stroke: #ff0000; stroke-width: 1.5"/>
     <use xlink:href="#m180bcd7fbd" x="97.47163" y="39.010908" style="fill: #ff0000; stroke: #ff0000; stroke-width: 1.5"/>
     <use xlink:href="#m180bcd7fbd" x="100.095455" y="38.210331" style="fill: #ff0000; stroke: #ff0000; stroke-width: 1.5"/>
    </g>
   </g>
   <g id="matplotlib.axis_1">
    <g id="xtick_1">
     <g id="line2d_1">
      <defs>
       <path id="m6fc2e619cd" d="M 0 0 
L 0 3.5 
" style="stroke: #000000; stroke-width: 0.8"/>
      </defs>
      <g>
       <use xlink:href="#m6fc2e619cd" x="24.004545" y="50.659312" style="stroke: #000000; stroke-width: 0.8"/>
      </g>
     </g>
     <g id="text_1">
      <!-- 0 -->
      <g transform="translate(22.504545 61.632437)scale(0.06 -0.06)">
       <defs>
        <path id="TimesNewRomanPS-BoldMT-30" d="M 2966 2119 
Q 2966 1484 2788 934 
Q 2681 597 2501 381 
Q 2322 166 2094 39 
Q 1866 -88 1597 -88 
Q 1291 -88 1044 68 
Q 797 225 606 516 
Q 469 728 366 1081 
Q 231 1559 231 2069 
Q 231 2759 425 3338 
Q 584 3816 909 4070 
Q 1234 4325 1597 4325 
Q 1966 4325 2286 4073 
Q 2606 3822 2756 3397 
Q 2966 2813 2966 2119 
z
M 2003 2125 
Q 2003 3238 1991 3422 
Q 1959 3856 1841 4009 
Q 1763 4109 1588 4109 
Q 1453 4109 1375 4034 
Q 1259 3925 1218 3648 
Q 1178 3372 1178 1719 
Q 1178 819 1241 513 
Q 1288 291 1375 216 
Q 1463 141 1606 141 
Q 1763 141 1841 241 
Q 1972 416 1991 781 
L 2003 2125 
z
" transform="scale(0.015625)"/>
       </defs>
       <use xlink:href="#TimesNewRomanPS-BoldMT-30"/>
      </g>
     </g>
    </g>
    <g id="xtick_2">
     <g id="line2d_2">
      <g>
       <use xlink:href="#m6fc2e619cd" x="76.481034" y="50.659312" style="stroke: #000000; stroke-width: 0.8"/>
      </g>
     </g>
     <g id="text_2">
      <!-- 20 -->
      <g transform="translate(73.481034 61.632437)scale(0.06 -0.06)">
       <defs>
        <path id="TimesNewRomanPS-BoldMT-32" d="M 2650 0 
L 156 0 
L 156 69 
Q 1303 1434 1548 1906 
Q 1794 2378 1794 2828 
Q 1794 3156 1591 3373 
Q 1388 3591 1094 3591 
Q 613 3591 347 3109 
L 231 3150 
Q 400 3750 744 4037 
Q 1088 4325 1538 4325 
Q 1859 4325 2125 4175 
Q 2391 4025 2541 3764 
Q 2691 3503 2691 3275 
Q 2691 2859 2459 2431 
Q 2144 1853 1081 819 
L 1997 819 
Q 2334 819 2436 847 
Q 2538 875 2603 942 
Q 2669 1009 2775 1225 
L 2888 1225 
L 2650 0 
z
" transform="scale(0.015625)"/>
       </defs>
       <use xlink:href="#TimesNewRomanPS-BoldMT-32"/>
       <use xlink:href="#TimesNewRomanPS-BoldMT-30" x="50"/>
      </g>
     </g>
    </g>
   </g>
   <g id="matplotlib.axis_2">
    <g id="ytick_1">
     <g id="line2d_3">
      <path d="M 20.2 49.418417 
L 103.9 49.418417 
" clip-path="url(#padcb8b4e5a)" style="fill: none; stroke: #b0b0b0; stroke-width: 0.8; stroke-linecap: square"/>
     </g>
     <g id="line2d_4">
      <defs>
       <path id="mdfe7cdc4e8" d="M 0 0 
L -3.5 0 
" style="stroke: #000000; stroke-width: 0.8"/>
      </defs>
      <g>
       <use xlink:href="#mdfe7cdc4e8" x="20.2" y="49.418417" style="stroke: #000000; stroke-width: 0.8"/>
      </g>
     </g>
     <g id="text_3">
      <!-- 0 -->
      <g transform="translate(10.2 51.40498)scale(0.06 -0.06)">
       <use xlink:href="#TimesNewRomanPS-BoldMT-30"/>
      </g>
     </g>
    </g>
    <g id="ytick_2">
     <g id="line2d_5">
      <path d="M 20.2 43.013796 
L 103.9 43.013796 
" clip-path="url(#padcb8b4e5a)" style="fill: none; stroke: #b0b0b0; stroke-width: 0.8; stroke-linecap: square"/>
     </g>
     <g id="line2d_6">
      <g>
       <use xlink:href="#mdfe7cdc4e8" x="20.2" y="43.013796" style="stroke: #000000; stroke-width: 0.8"/>
      </g>
     </g>
     <g id="text_4">
      <!-- 8 -->
      <g transform="translate(10.2 45.000359)scale(0.06 -0.06)">
       <defs>
        <path id="TimesNewRomanPS-BoldMT-38" d="M 2181 2394 
Q 2628 2066 2801 1783 
Q 2975 1500 2975 1134 
Q 2975 622 2589 267 
Q 2203 -88 1541 -88 
Q 913 -88 569 221 
Q 225 531 225 978 
Q 225 1319 423 1575 
Q 622 1831 1084 2044 
Q 581 2428 439 2672 
Q 297 2916 297 3238 
Q 297 3663 658 3986 
Q 1019 4309 1647 4309 
Q 2253 4309 2579 4023 
Q 2906 3738 2906 3338 
Q 2906 3038 2729 2808 
Q 2553 2578 2181 2394 
z
M 1944 2553 
Q 2059 2709 2115 2903 
Q 2172 3097 2172 3328 
Q 2172 3734 1997 3950 
Q 1866 4116 1634 4116 
Q 1425 4116 1278 3964 
Q 1131 3813 1131 3588 
Q 1131 3359 1295 3114 
Q 1459 2869 1944 2553 
z
M 1319 1894 
Q 1222 1806 1181 1734 
Q 1119 1625 1069 1415 
Q 1019 1206 1019 978 
Q 1019 684 1094 486 
Q 1169 288 1308 200 
Q 1447 113 1594 113 
Q 1822 113 1978 280 
Q 2134 447 2134 738 
Q 2134 1344 1319 1894 
z
" transform="scale(0.015625)"/>
       </defs>
       <use xlink:href="#TimesNewRomanPS-BoldMT-38"/>
      </g>
     </g>
    </g>
    <g id="ytick_3">
     <g id="line2d_7">
      <path d="M 20.2 36.609175 
L 103.9 36.609175 
" clip-path="url(#padcb8b4e5a)" style="fill: none; stroke: #b0b0b0; stroke-width: 0.8; stroke-linecap: square"/>
     </g>
     <g id="line2d_8">
      <g>
       <use xlink:href="#mdfe7cdc4e8" x="20.2" y="36.609175" style="stroke: #000000; stroke-width: 0.8"/>
      </g>
     </g>
     <g id="text_5">
      <!-- 16 -->
      <g transform="translate(7.2 38.595738)scale(0.06 -0.06)">
       <defs>
        <path id="TimesNewRomanPS-BoldMT-31" d="M 2084 4325 
L 2084 859 
Q 2084 469 2118 361 
Q 2153 253 2262 184 
Q 2372 116 2613 116 
L 2709 116 
L 2709 0 
L 478 0 
L 478 116 
L 591 116 
Q 863 116 978 178 
Q 1094 241 1134 350 
Q 1175 459 1175 859 
L 1175 3056 
Q 1175 3350 1147 3423 
Q 1119 3497 1042 3548 
Q 966 3600 866 3600 
Q 706 3600 478 3500 
L 422 3613 
L 1981 4325 
L 2084 4325 
z
" transform="scale(0.015625)"/>
        <path id="TimesNewRomanPS-BoldMT-36" d="M 3006 4325 
L 3006 4238 
Q 2441 4094 2098 3867 
Q 1756 3641 1557 3317 
Q 1359 2994 1250 2516 
Q 1388 2609 1478 2638 
Q 1681 2700 1888 2700 
Q 2363 2700 2680 2354 
Q 2997 2009 2997 1413 
Q 2997 994 2825 644 
Q 2653 294 2337 103 
Q 2022 -88 1663 -88 
Q 1272 -88 940 126 
Q 609 341 423 753 
Q 238 1166 238 1650 
Q 238 2363 580 2977 
Q 922 3591 1551 3955 
Q 2181 4319 3006 4325 
z
M 1209 2263 
Q 1184 1831 1184 1631 
Q 1184 1200 1267 797 
Q 1350 394 1494 231 
Q 1597 116 1738 116 
Q 1881 116 1993 283 
Q 2106 450 2106 963 
Q 2106 1825 1897 2153 
Q 1763 2366 1534 2366 
Q 1409 2366 1209 2263 
z
" transform="scale(0.015625)"/>
       </defs>
       <use xlink:href="#TimesNewRomanPS-BoldMT-31"/>
       <use xlink:href="#TimesNewRomanPS-BoldMT-36" x="50"/>
      </g>
     </g>
    </g>
    <g id="ytick_4">
     <g id="line2d_9">
      <path d="M 20.2 30.204554 
L 103.9 30.204554 
" clip-path="url(#padcb8b4e5a)" style="fill: none; stroke: #b0b0b0; stroke-width: 0.8; stroke-linecap: square"/>
     </g>
     <g id="line2d_10">
      <g>
       <use xlink:href="#mdfe7cdc4e8" x="20.2" y="30.204554" style="stroke: #000000; stroke-width: 0.8"/>
      </g>
     </g>
     <g id="text_6">
      <!-- 24 -->
      <g transform="translate(7.2 32.191117)scale(0.06 -0.06)">
       <defs>
        <path id="TimesNewRomanPS-BoldMT-34" d="M 159 1597 
L 2172 4325 
L 2553 4325 
L 2553 1597 
L 2941 1597 
L 2941 950 
L 2553 950 
L 2553 0 
L 1694 0 
L 1694 950 
L 159 950 
L 159 1597 
z
M 463 1597 
L 1694 1597 
L 1694 3269 
L 463 1597 
z
" transform="scale(0.015625)"/>
       </defs>
       <use xlink:href="#TimesNewRomanPS-BoldMT-32"/>
       <use xlink:href="#TimesNewRomanPS-BoldMT-34" x="50"/>
      </g>
     </g>
    </g>
    <g id="ytick_5">
     <g id="line2d_11">
      <path d="M 20.2 23.799933 
L 103.9 23.799933 
" clip-path="url(#padcb8b4e5a)" style="fill: none; stroke: #b0b0b0; stroke-width: 0.8; stroke-linecap: square"/>
     </g>
     <g id="line2d_12">
      <g>
       <use xlink:href="#mdfe7cdc4e8" x="20.2" y="23.799933" style="stroke: #000000; stroke-width: 0.8"/>
      </g>
     </g>
     <g id="text_7">
      <!-- 32 -->
      <g transform="translate(7.2 25.786496)scale(0.06 -0.06)">
       <defs>
        <path id="TimesNewRomanPS-BoldMT-33" d="M 947 2125 
L 947 2234 
Q 1303 2338 1440 2427 
Q 1578 2516 1678 2698 
Q 1778 2881 1778 3069 
Q 1778 3328 1589 3514 
Q 1400 3700 1119 3700 
Q 681 3700 375 3238 
L 259 3278 
Q 484 3800 836 4062 
Q 1188 4325 1619 4325 
Q 2059 4325 2345 4056 
Q 2631 3788 2631 3428 
Q 2631 3194 2498 2976 
Q 2366 2759 2081 2594 
Q 2447 2416 2639 2155 
Q 2831 1894 2831 1500 
Q 2831 838 2351 373 
Q 1872 -91 1066 -91 
Q 528 -91 281 88 
Q 103 213 103 409 
Q 103 553 206 654 
Q 309 756 444 756 
Q 547 756 638 713 
Q 688 688 992 439 
Q 1297 191 1563 191 
Q 1794 191 1959 373 
Q 2125 556 2125 838 
Q 2125 1266 1825 1627 
Q 1525 1988 947 2125 
z
" transform="scale(0.015625)"/>
       </defs>
       <use xlink:href="#TimesNewRomanPS-BoldMT-33"/>
       <use xlink:href="#TimesNewRomanPS-BoldMT-32" x="50"/>
      </g>
     </g>
    </g>
    <g id="ytick_6">
     <g id="line2d_13">
      <path d="M 20.2 17.395312 
L 103.9 17.395312 
" clip-path="url(#padcb8b4e5a)" style="fill: none; stroke: #b0b0b0; stroke-width: 0.8; stroke-linecap: square"/>
     </g>
     <g id="line2d_14">
      <g>
       <use xlink:href="#mdfe7cdc4e8" x="20.2" y="17.395312" style="stroke: #000000; stroke-width: 0.8"/>
      </g>
     </g>
     <g id="text_8">
      <!-- 40 -->
      <g transform="translate(7.2 19.381875)scale(0.06 -0.06)">
       <use xlink:href="#TimesNewRomanPS-BoldMT-34"/>
       <use xlink:href="#TimesNewRomanPS-BoldMT-30" x="50"/>
      </g>
     </g>
    </g>
   </g>
   <g id="line2d_15">
    <path d="M 24.004545 49.418417 
L 26.62837 49.418417 
L 29.252194 49.418417 
L 31.876019 49.418417 
L 34.499843 49.418417 
L 37.123668 49.418417 
L 39.747492 49.418417 
L 42.371317 49.418417 
L 44.995141 49.418417 
L 47.618966 49.418417 
L 50.24279 49.418417 
L 52.866614 49.418417 
L 55.490439 49.418417 
L 58.114263 49.418417 
L 60.738088 49.418417 
L 63.361912 44.614951 
L 65.985737 46.216107 
L 68.609561 47.817262 
L 71.233386 43.013796 
L 73.85721 46.216107 
L 76.481034 47.817262 
L 79.104859 48.61784 
L 81.728683 43.814374 
L 84.352508 48.61784 
L 86.976332 48.61784 
L 89.600157 49.418417 
L 92.223981 43.814374 
L 94.847806 24.600511 
L 97.47163 39.010908 
L 100.095455 38.210331 
" clip-path="url(#padcb8b4e5a)" style="fill: none; stroke: #000000; stroke-linecap: square"/>
   </g>
   <g id="patch_3">
    <path d="M 20.2 50.659312 
L 20.2 17.395312 
" style="fill: none; stroke: #000000; stroke-width: 0.8; stroke-linejoin: miter; stroke-linecap: square"/>
   </g>
   <g id="patch_4">
    <path d="M 103.9 50.659312 
L 103.9 17.395312 
" style="fill: none; stroke: #000000; stroke-width: 0.8; stroke-linejoin: miter; stroke-linecap: square"/>
   </g>
   <g id="patch_5">
    <path d="M 20.2 50.659312 
L 103.9 50.659312 
" style="fill: none; stroke: #000000; stroke-width: 0.8; stroke-linejoin: miter; stroke-linecap: square"/>
   </g>
   <g id="patch_6">
    <path d="M 20.2 17.395312 
L 103.9 17.395312 
" style="fill: none; stroke: #000000; stroke-width: 0.8; stroke-linejoin: miter; stroke-linecap: square"/>
   </g>
   <g id="text_9">
    <!-- Ours_986 -->
    <g transform="translate(50.05 11.395312)scale(0.06 -0.06)">
     <defs>
      <path id="SimHei-4f" d="M 2950 2275 
Q 2950 1100 2587 587 
Q 2225 75 1575 75 
Q 925 75 550 587 
Q 175 1100 175 2275 
Q 175 3450 550 3950 
Q 925 4450 1575 4450 
Q 2225 4450 2587 3950 
Q 2950 3450 2950 2275 
z
M 2350 2275 
Q 2350 3325 2125 3650 
Q 1900 3975 1575 3975 
Q 1250 3975 1012 3650 
Q 775 3325 775 2275 
Q 775 1225 1012 887 
Q 1250 550 1575 550 
Q 1900 550 2125 887 
Q 2350 1225 2350 2275 
z
" transform="scale(0.015625)"/>
      <path id="SimHei-75" d="M 2800 125 
L 2300 125 
L 2300 650 
Q 2100 375 1862 225 
Q 1625 75 1250 75 
Q 800 75 575 325 
Q 350 575 350 950 
L 350 2925 
L 850 2925 
L 850 1125 
Q 850 825 1000 650 
Q 1150 475 1400 475 
Q 1725 475 2012 812 
Q 2300 1150 2300 1650 
L 2300 2925 
L 2800 2925 
L 2800 125 
z
" transform="scale(0.015625)"/>
      <path id="SimHei-72" d="M 2500 2425 
Q 2025 2500 1700 2287 
Q 1375 2075 1150 1550 
L 1150 125 
L 650 125 
L 650 2925 
L 1150 2925 
L 1150 2200 
Q 1375 2600 1712 2787 
Q 2050 2975 2500 2975 
L 2500 2425 
z
" transform="scale(0.015625)"/>
      <path id="SimHei-73" d="M 2750 900 
Q 2750 500 2437 287 
Q 2125 75 1650 75 
Q 1050 75 725 312 
Q 400 550 400 1000 
L 900 1000 
Q 900 700 1112 600 
Q 1325 500 1625 500 
Q 1925 500 2075 612 
Q 2225 725 2225 900 
Q 2225 1025 2100 1150 
Q 1975 1275 1475 1350 
Q 900 1425 687 1637 
Q 475 1850 475 2200 
Q 475 2500 762 2737 
Q 1050 2975 1600 2975 
Q 2100 2975 2387 2750 
Q 2675 2525 2675 2150 
L 2175 2150 
Q 2175 2375 2012 2462 
Q 1850 2550 1600 2550 
Q 1275 2550 1137 2437 
Q 1000 2325 1000 2175 
Q 1000 2000 1125 1900 
Q 1250 1800 1650 1750 
Q 2300 1650 2525 1437 
Q 2750 1225 2750 900 
z
" transform="scale(0.015625)"/>
      <path id="SimHei-5f" d="M 3150 -850 
L 0 -850 
L 0 -550 
L 3150 -550 
L 3150 -850 
z
" transform="scale(0.015625)"/>
      <path id="SimHei-39" d="M 800 75 
Q 1350 1000 1700 1750 
Q 1075 1650 662 1912 
Q 250 2175 162 2625 
Q 75 3075 175 3437 
Q 275 3800 487 4037 
Q 700 4275 1000 4375 
Q 1300 4475 1537 4475 
Q 1775 4475 2025 4375 
Q 2275 4275 2475 4075 
Q 2675 3875 2750 3662 
Q 2825 3450 2825 3112 
Q 2825 2775 2575 2250 
Q 2325 1725 1350 75 
L 800 75 
z
M 662 2875 
Q 700 2550 937 2337 
Q 1175 2125 1450 2150 
Q 1725 2175 1887 2300 
Q 2050 2425 2200 2725 
Q 2300 3100 2250 3362 
Q 2200 3625 1987 3800 
Q 1775 3975 1525 3975 
Q 1375 4000 1137 3900 
Q 900 3800 762 3500 
Q 625 3200 662 2875 
z
" transform="scale(0.015625)"/>
      <path id="SimHei-38" d="M 175 1375 
Q 175 1675 325 1962 
Q 475 2250 825 2425 
Q 525 2600 425 2812 
Q 325 3025 312 3300 
Q 300 3575 387 3775 
Q 475 3975 650 4150 
Q 825 4325 1037 4387 
Q 1250 4450 1500 4450 
Q 1750 4450 1950 4400 
Q 2150 4350 2375 4187 
Q 2600 4025 2700 3725 
Q 2800 3425 2687 3025 
Q 2575 2625 2100 2400 
Q 2525 2275 2700 2012 
Q 2875 1750 2875 1375 
Q 2875 1000 2762 775 
Q 2650 550 2512 400 
Q 2375 250 2137 162 
Q 1900 75 1537 75 
Q 1175 75 912 162 
Q 650 250 475 425 
Q 300 600 237 837 
Q 175 1075 175 1375 
z
M 687 1400 
Q 675 1100 787 875 
Q 900 650 1200 587 
Q 1500 525 1825 600 
Q 2150 675 2275 950 
Q 2400 1225 2362 1500 
Q 2325 1775 2050 1962 
Q 1775 2150 1450 2125 
Q 1125 2100 912 1900 
Q 700 1700 687 1400 
z
M 775 3350 
Q 775 3100 950 2875 
Q 1125 2650 1500 2650 
Q 1875 2650 2062 2875 
Q 2250 3100 2237 3412 
Q 2225 3725 2012 3875 
Q 1800 4025 1437 4000 
Q 1075 3975 925 3787 
Q 775 3600 775 3350 
z
" transform="scale(0.015625)"/>
      <path id="SimHei-36" d="M 250 1612 
Q 275 1975 387 2225 
Q 500 2475 725 2850 
L 1750 4450 
L 2325 4450 
L 1275 2800 
Q 1950 2975 2350 2750 
Q 2750 2525 2887 2237 
Q 3025 1950 3037 1612 
Q 3050 1275 2937 950 
Q 2825 625 2537 362 
Q 2250 100 1737 75 
Q 1225 50 862 262 
Q 500 475 362 862 
Q 225 1250 250 1612 
z
M 1025 787 
Q 1250 550 1625 525 
Q 2000 500 2250 775 
Q 2500 1050 2500 1575 
Q 2500 2100 2187 2300 
Q 1875 2500 1487 2450 
Q 1100 2400 925 2075 
Q 750 1750 775 1387 
Q 800 1025 1025 787 
z
" transform="scale(0.015625)"/>
     </defs>
     <use xlink:href="#SimHei-4f"/>
     <use xlink:href="#SimHei-75" x="50"/>
     <use xlink:href="#SimHei-72" x="100"/>
     <use xlink:href="#SimHei-73" x="150"/>
     <use xlink:href="#SimHei-5f" x="200"/>
     <use xlink:href="#SimHei-39" x="250"/>
     <use xlink:href="#SimHei-38" x="300"/>
     <use xlink:href="#SimHei-36" x="350"/>
    </g>
   </g>
   <g id="legend_1"/>
  </g>
 </g>
 <defs>
  <clipPath id="padcb8b4e5a">
   <rect x="20.2" y="17.395312" width="83.7" height="33.264"/>
  </clipPath>
 </defs>
</svg>
